<?xml version="1.0" encoding="utf-8"?>
<!-- Generator: Adobe Illustrator 18.1.0, SVG Export Plug-In . SVG Version: 6.00 Build 0)  -->
<!DOCTYPE svg PUBLIC "-//W3C//DTD SVG 1.1//EN" "http://www.w3.org/Graphics/SVG/1.1/DTD/svg11.dtd">
<svg version="1.1" xmlns="http://www.w3.org/2000/svg" xmlns:xlink="http://www.w3.org/1999/xlink" x="0px" y="0px"
	 viewBox="0 0 800 499.5" enable-background="new 0 0 800 499.5" xml:space="preserve">
<g id="Layer_4">
</g>
<g id="Layer_5">
</g>
<g id="Layer_6">
</g>
<g id="Layer_3">
	<path fill="#AF509E" d="M225.2,16.1c0,0,1.2-6,3.2,0c6.6,20.4,48,65.2,77.7,81.7c-1.9-5.7-6-11.2-11.2-16.5c0,0-2.4-3,2.2-1.7
		c11,3.1,33.1,15.4,41.2,26.3c13.2,17.7,15.1,28.5,15.1,28.5s-13.3,17.4-19.1,32.9c0,0-15.4,40.1,12.8,70.3
		c27.9,29.9,45.3,33.4,45.3,33.4s-125,2.3-158.5-79.2c0,0-0.4-2.3,1.5-0.6c7.5,6.6,28.6,26.4,38.7,30.1c0,0-43.7-34.9-47.1-62.2
		c0,0,0-2.6,1.1-1.3c4.6,6,24.8,23.6,37,28c0,0-44.6-30.6-42.3-86.7c0,0,0.6-4.1,2.2,0.2c4.6,12.5,20.3,36.1,40.1,39.2
		C265.3,138.3,212.4,95.2,225.2,16.1z"/>
	<path fill="#AF509E" d="M265.3,247c0,0-1.3-1.5,1.7,0c14.1,7.3,62.7,30.8,122.2,29.2C389.1,276.2,302.2,291.2,265.3,247z"/>
	<path fill="#AF509E" d="M593.6,16.1c0,0-1.2-6-3.2,0c-6.6,20.4-48,65.2-77.7,81.7c1.9-5.7,6-11.2,11.2-16.5c0,0,2.4-3-2.2-1.7
		c-11,3.1-33.1,15.4-41.2,26.3c-13.2,17.7-15.1,28.5-15.1,28.5s13.3,17.4,19.1,32.9c0,0,15.4,40.1-12.8,70.3
		c-27.9,29.9-45.3,33.4-45.3,33.4s125,2.3,158.5-79.2c0,0,0.4-2.3-1.5-0.6c-7.5,6.6-28.6,26.4-38.7,30.1c0,0,43.7-34.9,47.1-62.2
		c0,0,0-2.6-1.1-1.3c-4.6,6-24.8,23.6-37,28c0,0,44.6-30.6,42.3-86.7c0,0-0.6-4.1-2.2,0.2c-4.6,12.5-20.3,36.1-40.1,39.2
		C553.5,138.3,606.3,95.2,593.6,16.1z"/>
	<path fill="#AF509E" d="M553.5,247c0,0,1.3-1.5-1.7,0c-14.1,7.3-62.7,30.8-122.2,29.2C429.6,276.2,516.6,291.2,553.5,247z"/>
	<polygon fill="#AF509E" points="416.6,185.5 432.3,185.5 458.4,164.8 458.4,234.4 431.3,214.7 416.6,214.7 	"/>
	<polygon fill="#AF509E" points="407.4,185.5 391.7,185.5 365.6,164.8 365.6,234.4 392.8,214.7 407.4,214.7 	"/>
	<polygon fill="#AF509E" points="392.6,159.5 394.1,160.5 451.7,91.8 440.9,86.5 	"/>
	<polygon fill="#AF509E" points="430.1,159.5 428.6,160.5 370.9,91.8 381.8,86.5 	"/>
	<g>
		<path fill="#AF509E" d="M65.9,345.9c-0.2,0.4-0.6,0.6-1,0.6c-0.4,0-1-0.4-1.8-1.1c-0.8-0.8-1.8-1.6-3.2-2.6
			c-1.4-0.9-3.1-1.8-5.3-2.6c-2.2-0.8-4.8-1.1-8-1.1c-3.2,0-6.1,0.5-8.5,1.4c-2.5,1-4.6,2.3-6.3,3.9c-1.7,1.6-3,3.5-3.8,5.7
			c-0.9,2.1-1.3,4.4-1.3,6.7c0,3,0.6,5.5,1.8,7.5c1.2,2,2.8,3.7,4.8,5.1c2,1.4,4.3,2.5,6.8,3.5c2.5,0.9,5.1,1.8,7.8,2.7
			c2.7,0.9,5.3,1.8,7.8,2.8c2.5,1,4.8,2.3,6.8,3.8s3.6,3.4,4.8,5.7c1.2,2.3,1.8,5,1.8,8.4c0,3.4-0.6,6.6-1.7,9.6
			c-1.2,3-2.8,5.6-5,7.8c-2.2,2.2-4.9,4-8.1,5.2c-3.2,1.3-6.8,1.9-10.9,1.9c-2.8,0-5.3-0.2-7.5-0.7c-2.3-0.5-4.3-1.2-6.2-2.1
			c-1.9-0.9-3.6-2-5.2-3.4c-1.6-1.3-3.1-2.8-4.5-4.5l0.8-1.2c0.2-0.2,0.4-0.3,0.5-0.4c0.1-0.1,0.3-0.1,0.6-0.1
			c0.3,0,0.7,0.2,1.1,0.7c0.5,0.5,1.1,1.1,1.9,1.8c0.8,0.7,1.7,1.5,2.8,2.3c1.1,0.8,2.4,1.6,3.9,2.3c1.5,0.7,3.2,1.3,5.2,1.8
			c2,0.5,4.2,0.7,6.7,0.7c3.6,0,6.7-0.6,9.6-1.7c2.8-1.1,5.2-2.6,7.1-4.6c1.9-1.9,3.4-4.2,4.4-6.8c1-2.6,1.5-5.3,1.5-8.3
			c0-3.1-0.6-5.7-1.8-7.7c-1.2-2-2.8-3.7-4.8-5.1c-2-1.4-4.2-2.5-6.8-3.4c-2.5-0.9-5.1-1.8-7.8-2.6c-2.6-0.8-5.2-1.8-7.8-2.8
			c-2.5-1-4.8-2.3-6.8-3.8c-2-1.5-3.6-3.5-4.8-5.8c-1.2-2.3-1.8-5.2-1.8-8.6c0-2.7,0.5-5.3,1.5-7.7c1-2.5,2.5-4.6,4.4-6.5
			c1.9-1.9,4.3-3.4,7.2-4.5c2.8-1.1,6.1-1.7,9.8-1.7c4.1,0,7.8,0.7,11,2c3.2,1.3,6.2,3.4,9,6.2L65.9,345.9z"/>
		<path fill="#AF509E" d="M141.8,337.3v2.8h-30.2v79.7h-3.2v-79.7H77.9v-2.8H141.8z"/>
		<path fill="#AF509E" d="M205.3,337.3v2.8h-45.5v36.6h38.3v2.7h-38.3v37.7h45.6l-0.1,2.8h-48.7v-82.5H205.3z"/>
		<path fill="#AF509E" d="M228,381v38.9h-3.2v-82.5h19.9c9,0,15.8,1.7,20.4,5.2c4.7,3.5,7,8.8,7,15.8c0,3.2-0.6,6.2-1.8,8.9
			c-1.2,2.7-2.9,5-5.1,6.9c-2.2,1.9-4.9,3.5-8,4.6c-3.1,1.1-6.6,1.8-10.4,2.1c0.7,0.4,1.4,1,2.1,1.8l30.7,37.3h-2.6
			c-0.4,0-0.8-0.1-1.1-0.2c-0.3-0.1-0.7-0.4-1-0.8l-29.1-35.6c-0.3-0.4-0.6-0.8-1-1.1c-0.3-0.3-0.7-0.5-1.1-0.7
			c-0.4-0.2-0.9-0.3-1.5-0.4c-0.6-0.1-1.3-0.1-2.1-0.1H228z M228,378.5h15.7c3.9,0,7.4-0.5,10.5-1.4c3.1-0.9,5.8-2.2,7.9-4
			c2.2-1.7,3.8-3.8,5-6.3c1.2-2.5,1.7-5.2,1.7-8.3c0-6.4-2.1-11.1-6.2-14.1c-4.1-3-10.1-4.5-18-4.5H228V378.5z"/>
		<path fill="#AF509E" d="M343.6,337.3v2.8h-45.5v36.6h38.3v2.7h-38.3v37.7h45.6l-0.1,2.8h-48.7v-82.5H343.6z"/>
		<path fill="#AF509E" d="M433,378.6c0,6.5-0.9,12.3-2.8,17.5c-1.9,5.2-4.5,9.6-7.9,13.3c-3.4,3.7-7.5,6.5-12.2,8.4
			c-4.7,2-10,2.9-15.7,2.9c-5.7,0-10.9-1-15.6-2.9c-4.7-2-8.8-4.8-12.2-8.4c-3.4-3.7-6-8.1-7.9-13.3c-1.9-5.2-2.8-11-2.8-17.5
			c0-6.4,0.9-12.2,2.8-17.4c1.9-5.2,4.5-9.6,7.9-13.3c3.4-3.7,7.5-6.5,12.2-8.5c4.7-2,9.9-3,15.6-3c5.8,0,11,1,15.7,3
			c4.7,2,8.8,4.8,12.2,8.5c3.4,3.7,6,8.1,7.9,13.3C432,366.3,433,372.1,433,378.6z M429.5,378.6c0-6.1-0.9-11.7-2.6-16.5
			c-1.7-4.9-4.1-9-7.2-12.4c-3.1-3.4-6.8-6-11.2-7.8c-4.3-1.8-9.1-2.7-14.4-2.7c-5.2,0-9.9,0.9-14.2,2.7c-4.3,1.8-8,4.4-11.2,7.8
			c-3.1,3.4-5.5,7.5-7.3,12.4c-1.7,4.9-2.6,10.4-2.6,16.5c0,6.1,0.9,11.7,2.6,16.5c1.7,4.9,4.2,9,7.3,12.4c3.1,3.4,6.8,5.9,11.2,7.7
			c4.3,1.8,9.1,2.7,14.2,2.7c5.2,0,10-0.9,14.4-2.7c4.3-1.8,8-4.4,11.2-7.7c3.1-3.4,5.5-7.5,7.2-12.4
			C428.7,390.2,429.5,384.7,429.5,378.6z"/>
		<path fill="#AF509E" d="M525.4,345.9c-0.2,0.4-0.6,0.6-1,0.6c-0.4,0-1-0.4-1.8-1.1c-0.8-0.8-1.8-1.6-3.2-2.6
			c-1.4-0.9-3.1-1.8-5.3-2.6c-2.2-0.8-4.8-1.1-8-1.1c-3.2,0-6.1,0.5-8.5,1.4c-2.5,1-4.6,2.3-6.3,3.9c-1.7,1.6-3,3.5-3.8,5.7
			c-0.9,2.1-1.3,4.4-1.3,6.7c0,3,0.6,5.5,1.8,7.5c1.2,2,2.8,3.7,4.8,5.1c2,1.4,4.3,2.5,6.8,3.5c2.5,0.9,5.1,1.8,7.8,2.7
			c2.7,0.9,5.3,1.8,7.8,2.8c2.5,1,4.8,2.3,6.8,3.8s3.6,3.4,4.8,5.7c1.2,2.3,1.8,5,1.8,8.4c0,3.4-0.6,6.6-1.7,9.6
			c-1.2,3-2.8,5.6-5,7.8c-2.2,2.2-4.9,4-8.1,5.2c-3.2,1.3-6.8,1.9-10.9,1.9c-2.8,0-5.3-0.2-7.5-0.7c-2.3-0.5-4.3-1.2-6.2-2.1
			c-1.9-0.9-3.6-2-5.2-3.4c-1.6-1.3-3.1-2.8-4.5-4.5l0.8-1.2c0.2-0.2,0.4-0.3,0.5-0.4c0.1-0.1,0.3-0.1,0.6-0.1
			c0.3,0,0.7,0.2,1.1,0.7c0.5,0.5,1.1,1.1,1.9,1.8c0.8,0.7,1.7,1.5,2.8,2.3c1.1,0.8,2.4,1.6,3.9,2.3c1.5,0.7,3.2,1.3,5.2,1.8
			c2,0.5,4.2,0.7,6.7,0.7c3.6,0,6.7-0.6,9.6-1.7c2.8-1.1,5.2-2.6,7.1-4.6c1.9-1.9,3.4-4.2,4.4-6.8c1-2.6,1.5-5.3,1.5-8.3
			c0-3.1-0.6-5.7-1.8-7.7c-1.2-2-2.8-3.7-4.8-5.1c-2-1.4-4.2-2.5-6.8-3.4c-2.5-0.9-5.1-1.8-7.8-2.6c-2.6-0.8-5.2-1.8-7.8-2.8
			c-2.5-1-4.8-2.3-6.8-3.8c-2-1.5-3.6-3.5-4.8-5.8c-1.2-2.3-1.8-5.2-1.8-8.6c0-2.7,0.5-5.3,1.5-7.7c1-2.5,2.5-4.6,4.4-6.5
			c1.9-1.9,4.3-3.4,7.2-4.5c2.8-1.1,6.1-1.7,9.8-1.7c4.1,0,7.8,0.7,11,2c3.2,1.3,6.2,3.4,9,6.2L525.4,345.9z"/>
		<path fill="#AF509E" d="M578.2,418c4.3,0,8.1-0.8,11.4-2.3c3.3-1.5,6.2-3.6,8.5-6.2c2.3-2.6,4.1-5.7,5.3-9.2
			c1.2-3.5,1.8-7.3,1.8-11.4v-51.5h3.3v51.5c0,4.5-0.7,8.6-2.1,12.5c-1.4,3.9-3.4,7.3-6.1,10.2c-2.6,2.9-5.8,5.2-9.6,6.8
			c-3.7,1.7-8,2.5-12.6,2.5s-8.9-0.8-12.7-2.5c-3.8-1.7-6.9-3.9-9.6-6.8c-2.6-2.9-4.6-6.3-6-10.2c-1.4-3.9-2.1-8.1-2.1-12.5v-51.5
			h3.2v51.4c0,4.1,0.6,7.9,1.8,11.4c1.2,3.6,3,6.7,5.3,9.3c2.3,2.6,5.2,4.7,8.5,6.2C570.1,417.2,573.9,418,578.2,418z"/>
		<path fill="#AF509E" d="M672.7,345.9c-0.2,0.4-0.6,0.6-1,0.6c-0.4,0-1-0.4-1.8-1.1c-0.8-0.8-1.8-1.6-3.2-2.6
			c-1.4-0.9-3.1-1.8-5.3-2.6c-2.2-0.8-4.8-1.1-8-1.1c-3.2,0-6.1,0.5-8.5,1.4c-2.5,1-4.6,2.3-6.3,3.9c-1.7,1.6-3,3.5-3.8,5.7
			c-0.9,2.1-1.3,4.4-1.3,6.7c0,3,0.6,5.5,1.8,7.5c1.2,2,2.8,3.7,4.8,5.1c2,1.4,4.3,2.5,6.8,3.5c2.5,0.9,5.1,1.8,7.8,2.7
			c2.7,0.9,5.3,1.8,7.8,2.8c2.5,1,4.8,2.3,6.8,3.8c2,1.5,3.6,3.4,4.8,5.7c1.2,2.3,1.8,5,1.8,8.4c0,3.4-0.6,6.6-1.7,9.6
			c-1.2,3-2.8,5.6-5,7.8c-2.2,2.2-4.9,4-8.1,5.2c-3.2,1.3-6.8,1.9-10.9,1.9c-2.8,0-5.3-0.2-7.5-0.7c-2.3-0.5-4.3-1.2-6.2-2.1
			c-1.9-0.9-3.6-2-5.2-3.4c-1.6-1.3-3.1-2.8-4.5-4.5l0.8-1.2c0.2-0.2,0.4-0.3,0.5-0.4c0.1-0.1,0.3-0.1,0.6-0.1
			c0.3,0,0.7,0.2,1.1,0.7c0.5,0.5,1.1,1.1,1.9,1.8c0.8,0.7,1.7,1.5,2.8,2.3c1.1,0.8,2.4,1.6,3.9,2.3c1.5,0.7,3.2,1.3,5.2,1.8
			c2,0.5,4.2,0.7,6.7,0.7c3.6,0,6.7-0.6,9.6-1.7c2.8-1.1,5.2-2.6,7.1-4.6c1.9-1.9,3.4-4.2,4.4-6.8c1-2.6,1.5-5.3,1.5-8.3
			c0-3.1-0.6-5.7-1.8-7.7c-1.2-2-2.8-3.7-4.8-5.1c-2-1.4-4.2-2.5-6.8-3.4c-2.5-0.9-5.1-1.8-7.8-2.6c-2.6-0.8-5.2-1.8-7.8-2.8
			c-2.5-1-4.8-2.3-6.8-3.8c-2-1.5-3.6-3.5-4.8-5.8c-1.2-2.3-1.8-5.2-1.8-8.6c0-2.7,0.5-5.3,1.5-7.7c1-2.5,2.5-4.6,4.4-6.5
			c1.9-1.9,4.3-3.4,7.2-4.5c2.8-1.1,6.1-1.7,9.8-1.7c4.1,0,7.8,0.7,11,2c3.2,1.3,6.2,3.4,9,6.2L672.7,345.9z"/>
		<path fill="#AF509E" d="M758.1,419.9h-3.3v-40.6h-55.5v40.6h-3.2v-82.5h3.2v39.4h55.5v-39.4h3.3V419.9z"/>
		<path fill="#AF509E" d="M787.5,419.9h-3.2v-82.5h3.2V419.9z"/>
	</g>
	<g>
		<path fill="#AF509E" d="M162.3,470.1c0,1.7-0.7,3.1-2,4c-1.3,0.9-3.1,1.4-5.5,1.4c-2.5,0-4.4-0.4-5.8-1.2v-2.6
			c0.9,0.5,1.9,0.8,2.9,1.1c1,0.3,2,0.4,3,0.4c1.5,0,2.6-0.2,3.4-0.7c0.8-0.5,1.2-1.2,1.2-2.2c0-0.7-0.3-1.4-1-1.9
			c-0.6-0.5-1.9-1.1-3.7-1.8c-1.7-0.7-3-1.2-3.7-1.7c-0.7-0.5-1.3-1-1.6-1.7c-0.4-0.6-0.5-1.4-0.5-2.2c0-1.5,0.6-2.7,1.9-3.6
			c1.2-0.9,3-1.3,5.1-1.3c2,0,4,0.4,5.9,1.2l-1,2.3c-1.9-0.8-3.6-1.2-5.1-1.2c-1.3,0-2.4,0.2-3.1,0.6c-0.7,0.4-1,1-1,1.7
			c0,0.5,0.1,0.9,0.4,1.3c0.3,0.4,0.7,0.7,1.2,1c0.6,0.3,1.7,0.8,3.3,1.4c2.2,0.8,3.7,1.6,4.5,2.5
			C162,467.8,162.3,468.8,162.3,470.1z"/>
		<path fill="#AF509E" d="M211.9,465.6c0.5-0.7,1.2-1.6,2.2-2.7l6.1-6.4h3.4l-7.6,8l8.1,10.8h-3.4l-6.6-8.9l-2.1,1.9v7h-2.8v-26.7
			h2.8v14.1c0,0.6,0,1.6-0.1,2.9H211.9z"/>
		<path fill="#AF509E" d="M266.7,456.4h3.1l4.1,10.7c0.9,2.4,1.5,4.2,1.7,5.3h0.1c0.1-0.6,0.5-1.6,0.9-3c0.5-1.4,2-5.8,4.7-13h3.1
			l-8.1,21.4c-0.8,2.1-1.7,3.6-2.8,4.5c-1.1,0.9-2.4,1.3-3.9,1.3c-0.9,0-1.7-0.1-2.6-0.3v-2.3c0.6,0.1,1.3,0.2,2.1,0.2
			c2,0,3.3-1.1,4.2-3.3l1-2.7L266.7,456.4z"/>
		<path fill="#AF509E" d="M380.5,462.4c0-1.4,0.3-2.4,1-3.2c0.6-0.7,1.6-1.1,2.8-1.1c1.2,0,2.1,0.4,2.8,1.1c0.7,0.7,1,1.8,1,3.2
			c0,1.4-0.3,2.4-1,3.1c-0.7,0.7-1.6,1.1-2.8,1.1c-1.2,0-2.2-0.4-2.8-1.1C380.9,464.8,380.5,463.7,380.5,462.4z"/>
		<path fill="#AF509E" d="M494.8,475.6c-2.7,0-4.8-0.8-6.3-2.5c-1.5-1.7-2.2-4-2.2-7.1c0-3.1,0.8-5.6,2.3-7.3
			c1.5-1.7,3.7-2.6,6.5-2.6c0.9,0,1.8,0.1,2.7,0.3c0.9,0.2,1.6,0.4,2.1,0.7l-0.9,2.4c-0.6-0.3-1.3-0.5-2.1-0.6
			c-0.7-0.2-1.4-0.2-2-0.2c-3.8,0-5.7,2.4-5.7,7.3c0,2.3,0.5,4.1,1.4,5.3c0.9,1.2,2.3,1.9,4.1,1.9c1.6,0,3.2-0.3,4.8-1v2.5
			C498.3,475.2,496.7,475.6,494.8,475.6z"/>
		<path fill="#AF509E" d="M549,475.2h-2.8v-26.7h2.8V475.2z"/>
		<path fill="#AF509E" d="M599.9,456.4v12.2c0,1.5,0.3,2.7,1,3.4c0.7,0.8,1.8,1.1,3.3,1.1c2,0,3.4-0.5,4.3-1.6
			c0.9-1.1,1.4-2.8,1.4-5.3v-9.9h2.8v18.8h-2.3l-0.4-2.5h-0.2c-0.6,0.9-1.4,1.6-2.4,2.1c-1,0.5-2.2,0.7-3.5,0.7
			c-2.3,0-4-0.5-5.1-1.6c-1.1-1.1-1.7-2.8-1.7-5.2v-12.3H599.9z"/>
		<path fill="#AF509E" d="M669.6,456.1c2.5,0,4.4,0.8,5.8,2.5c1.4,1.7,2,4.1,2,7.2c0,3.1-0.7,5.5-2.1,7.2c-1.4,1.7-3.3,2.6-5.7,2.6
			c-1.2,0-2.3-0.2-3.4-0.7c-1-0.5-1.9-1.1-2.5-2.1h-0.2l-0.6,2.4h-2v-26.7h2.8v6.5c0,1.5,0,2.8-0.1,3.9h0.1
			C665,457,667,456.1,669.6,456.1z M669.2,458.5c-1.9,0-3.3,0.6-4.2,1.7c-0.9,1.1-1.3,3-1.3,5.6c0,2.6,0.4,4.5,1.3,5.7
			c0.9,1.1,2.3,1.7,4.2,1.7c1.7,0,3.1-0.6,3.9-1.9c0.9-1.3,1.3-3.1,1.3-5.5c0-2.4-0.4-4.3-1.3-5.5
			C672.3,459.1,671,458.5,669.2,458.5z"/>
	</g>
</g>
</svg>
